<?xml version="1.0" encoding="iso-8859-1"?>
<!-- Generator: Adobe Illustrator 19.0.0, SVG Export Plug-In . SVG Version: 6.00 Build 0)  -->
<svg version="1.1" id="Layer_1" xmlns="http://www.w3.org/2000/svg" xmlns:xlink="http://www.w3.org/1999/xlink" x="0px" y="0px"
	 viewBox="0 0 511.999 511.999" style="enable-background:new 0 0 511.999 511.999;" xml:space="preserve">
<g>
	<g>
		<path fill="#fff" d="M491.511,235.013c-13.02-10.436-29.823-14.341-46.12-10.707l-108.815,24.269v-32.823
			c0-17.902-13.158-32.787-30.309-35.501c8.664-13.42,13.718-29.381,13.718-46.51c0-47.423-38.581-86.004-86.004-86.004
			c-13.421,0-26.131,3.094-37.462,8.6c-19.429-30.82-53.052-49.583-90.026-49.583C47.773,6.755,0,54.529,0,113.25
			c0,30.155,12.618,57.4,32.827,76.794c-6.691,6.532-10.857,15.641-10.857,25.707v223.339c0,19.821,16.125,35.946,35.946,35.946
			h53.475c-1.796,2.997-2.848,6.492-2.848,10.239c0,11.029,8.941,19.97,19.97,19.97h97.843c11.029,0,19.97-8.941,19.97-19.97
			c0-3.748-1.052-7.242-2.848-10.239h57.151c19.821,0,35.946-16.125,35.946-35.946v-32.827l107.923,25.976
			c4.289,1.032,8.619,1.54,12.913,1.54c12.122,0,23.956-4.047,33.74-11.756c13.248-10.439,20.847-26.099,20.847-42.966V277.693
			C512,261.007,504.533,245.451,491.511,235.013z M233.982,87.677c25.399,0,46.064,20.664,46.064,46.064
			c0,25.4-20.664,46.064-46.064,46.064c-25.4,0-46.065-20.664-46.065-46.064C187.917,108.341,208.581,87.677,233.982,87.677z
			 M39.94,113.25c0-36.699,29.856-66.555,66.555-66.555c24.804,0,47.196,13.513,58.799,35.357
			c-10.862,14.4-17.315,32.303-17.315,51.689c0,9.735,1.65,19.086,4.644,27.818c-0.714,0.482-1.413,0.997-2.076,1.583
			c-12.158,10.745-27.802,16.663-44.051,16.663C69.796,179.805,39.94,149.949,39.94,113.25z M296.638,288.021v78.612v68.462H61.911
			V219.745h234.727V288.021z M472.061,379.057h-0.001c0,6.232-3.524,9.938-5.626,11.595c-2.102,1.656-6.533,4.212-12.589,2.756
			l-117.267-28.224v-75.689l117.51-26.209c6.022-1.341,10.38,1.235,12.445,2.89c2.066,1.655,5.529,5.352,5.529,11.517V379.057z"/>
	</g>
</g>
<g>
</g>
<g>
</g>
<g>
</g>
<g>
</g>
<g>
</g>
<g>
</g>
<g>
</g>
<g>
</g>
<g>
</g>
<g>
</g>
<g>
</g>
<g>
</g>
<g>
</g>
<g>
</g>
<g>
</g>
</svg>
